<svg xmlns="http://www.w3.org/2000/svg" xmlns:xlink="http://www.w3.org/1999/xlink" width="865.76" height="682.89" viewBox="0 0 865.76 682.89"><defs><clipPath id="a"><rect x="498.17" y="452.58" width="316.33" height="56.6" fill="#ee564b" stroke="#303a46" stroke-miterlimit="10"/></clipPath><clipPath id="b"><rect x="498.17" y="555.58" width="316.33" height="56.6" fill="#ee564b" stroke="#303a46" stroke-miterlimit="10"/></clipPath></defs><rect x="533.41" y="430.68" width="12.35" height="226.98" fill="#e0e0e0"/><path d="M552.07,422.91a12.45,12.45,0,1,1-12.45-12.44h0a12.43,12.43,0,0,1,12.45,12.42Z" fill="#ee564b"/><rect x="778.77" y="430.68" width="12.35" height="226.98" fill="#e0e0e0"/><path d="M797.42,422.91A12.45,12.45,0,1,1,785,410.47h0a12.43,12.43,0,0,1,12.44,12.43Z" fill="#ee564b"/><rect x="117.08" y="306.97" width="18" height="349" fill="#303a46"/><rect x="498.17" y="452.58" width="316.33" height="56.6" fill="#ee564b"/><g clip-path="url(#a)"><polygon points="533.96 452.58 533.41 453.52 500.91 509.18 498.16 509.18 498.16 452.58 533.96 452.58" fill="#f5f5f5"/><polygon points="613.92 452.58 580.84 509.18 537.61 509.18 550.76 486.69 570.7 452.58 613.92 452.58" fill="#f5f5f5"/><polygon points="693.83 452.58 660.76 509.18 617.54 509.18 650.61 452.58 693.83 452.58" fill="#f5f5f5"/><polygon points="773.76 452.6 740.66 509.18 697.45 509.18 730.53 452.6 773.76 452.6" fill="#f5f5f5"/><polygon points="814.49 452.6 814.49 509.18 777.38 509.18 810.46 452.6 814.49 452.6" fill="#f5f5f5"/></g><rect x="498.17" y="452.58" width="316.33" height="56.6" fill="none" stroke="#303a46" stroke-miterlimit="10"/><rect x="498.17" y="555.58" width="316.33" height="56.6" fill="#ee564b"/><g clip-path="url(#b)"><polygon points="533.96 555.58 533.41 556.52 500.91 612.18 498.16 612.18 498.16 555.58 533.96 555.58" fill="#f5f5f5"/><polygon points="613.92 555.58 580.84 612.18 537.61 612.18 550.76 589.69 570.7 555.58 613.92 555.58" fill="#f5f5f5"/><polygon points="693.83 555.58 660.76 612.18 617.54 612.18 650.61 555.58 693.83 555.58" fill="#f5f5f5"/><polygon points="773.76 555.6 740.66 612.18 697.45 612.18 730.53 555.6 773.76 555.6" fill="#f5f5f5"/><polygon points="814.49 555.6 814.49 612.18 777.38 612.18 810.46 555.6 814.49 555.6" fill="#f5f5f5"/></g><rect x="498.17" y="555.58" width="316.33" height="56.6" fill="none" stroke="#303a46" stroke-miterlimit="10"/><circle cx="126.08" cy="250.86" r="75.4" fill="#ee564b"/><circle cx="126.08" cy="250.86" r="67.09" fill="none" stroke="#fff" stroke-miterlimit="10" stroke-width="2"/><rect x="86.83" y="239.53" width="78.52" height="16.38" fill="#fafafa"/><rect x="506.38" y="70.73" width="295.65" height="295.65" transform="translate(-17.45 61.6) rotate(-5.32)" fill="#fff" stroke="#303a46" stroke-miterlimit="10"/><rect x="507.64" y="65.55" width="12.97" height="31.5" transform="translate(-5.32 48.02) rotate(-5.32)" fill="#e0e0e0"/><rect x="535.08" y="360.13" width="12.97" height="31.5" transform="translate(-32.52 51.83) rotate(-5.32)" fill="#e0e0e0"/><rect x="765.46" y="41.52" width="12.97" height="31.5" transform="translate(-1.99 71.82) rotate(-5.32)" fill="#e0e0e0"/><rect x="793.07" y="338.14" width="12.97" height="31.5" transform="translate(-29.37 75.66) rotate(-5.32)" fill="#e0e0e0"/><circle cx="648.82" cy="160.46" r="64.66" transform="translate(76.57 505.78) rotate(-45)" fill="#fff"/><path d="M648.74,226a65.52,65.52,0,1,1,65.36-71.67h0a65.67,65.67,0,0,1-59.22,71.38C652.82,225.92,650.78,226,648.74,226Zm.1-129.35c-2,0-4,.1-6,.28a63.68,63.68,0,1,0,6-.28Z" fill="#5ac1b1"/><path d="M678.85,153a4.54,4.54,0,0,0-6.3-1.28,4.6,4.6,0,0,0-1,.91,16,16,0,0,0-2,4.46c-1.27,3.92-2.38,7.88-3.62,11.81-.13.41-.62.72-.95,1.08-.27-.4-.71-.78-.77-1.23-.31-2.23-.57-4.48-.77-6.73-.41-4.43-.77-8.86-1.17-13.28-.68-7.43-1.42-14.88-2.12-22.3a4.72,4.72,0,0,0-1-2.31,4.36,4.36,0,0,0-5-.89,4.1,4.1,0,0,0-2.22,4.27q1.08,11.83,2.19,23.65a3.51,3.51,0,0,1,0,1.12c-.1.29-.44.68-.71.71a1.17,1.17,0,0,1-.81-.57,2.87,2.87,0,0,1-.17-1.08l-2.57-27.49a14.15,14.15,0,0,0-.2-1.72,3.2,3.2,0,0,0-2.84-2.77,4.29,4.29,0,0,0-5.25,3,4.44,4.44,0,0,0-.07,1.92q1.25,13.55,2.52,27.06a7.13,7.13,0,0,1,0,1.6,1,1,0,0,1-.64.71,1,1,0,0,1-.82-.52,4.59,4.59,0,0,1-.23-1.42c-.68-7.23-1.33-14.46-2-21.69a4.16,4.16,0,0,0-8.27.8q1.05,11.53,2.13,23a4.9,4.9,0,0,1,.09,1.43,4.74,4.74,0,0,1-.67,1.15c-.33-.34-.91-.66-.95-1-.32-2.77-.52-5.58-.77-8.37s-.52-5.93-.84-8.87a3.91,3.91,0,0,0-4.31-3.46l-.32.05a3.6,3.6,0,0,0-3.36,3.83,2.45,2.45,0,0,0,0,.27q.57,8.7,1.13,17.41h0c.33,3.53.61,7.12.78,10.61a53.7,53.7,0,0,0,4.67,20.46,19,19,0,0,0,14.25,11.24,27.54,27.54,0,0,0,20.11-4,18.52,18.52,0,0,0,8.54-11c2.35-9,4.52-18,6.65-27A5.15,5.15,0,0,0,678.85,153Z" fill="#ee564b"/><path d="M586.38,322.83l.18,2.1-12.26,1.14-1.53-16.92L584.71,308l.2,2.09-9.52.9.47,5.18,8.55-.78.19,2.05-8.48.8.51,5.45Z" fill="#5ac1b1"/><path d="M595.88,311l.21,2.25h-.54c-2.48.23-3.89,1.89-3.63,4.7l.59,6.38-2.32.21L589,311.75l2.23-.21.2,2.15A4.91,4.91,0,0,1,595.88,311Z" fill="#5ac1b1"/><path d="M605.6,310.13l.22,2.24h-.53c-2.49.24-3.9,1.9-3.63,4.7l.58,6.38-2.32.21-1.18-12.82,2.22-.2.2,2.15A4.89,4.89,0,0,1,605.6,310.13Z" fill="#5ac1b1"/><path d="M607.74,316.51a6.69,6.69,0,1,1,7.39,5.91l-.11,0a6.41,6.41,0,0,1-7.23-5.47A3.59,3.59,0,0,1,607.74,316.51Zm11-1a4.09,4.09,0,1,0,0,.3c0-.1,0-.2,0-.3Z" fill="#5ac1b1"/><path d="M630.53,307.81l.21,2.24h-.54c-2.48.22-3.89,1.89-3.63,4.69l.6,6.39-2.33.21-1.18-12.82,2.22-.2.2,2.15A4.87,4.87,0,0,1,630.53,307.81Z" fill="#5ac1b1"/><path d="M642.65,304.78l.55,5.89,8.55-.78.14,2.11-8.55.79.65,6.84-2.43.23L640,302.94l11.93-1.11.2,2.11Z" fill="#5ac1b1"/><path d="M654.42,312.17a6.68,6.68,0,1,1,7.37,5.91h-.09a6.4,6.4,0,0,1-7.23-5.43C654.45,312.49,654.44,312.33,654.42,312.17Zm11-1a4.24,4.24,0,1,0,0,.32c0-.11,0-.21,0-.32Z" fill="#5ac1b1"/><path d="M677.21,303.45l.22,2.24h-.55c-2.47.22-3.88,1.89-3.63,4.7l.6,6.38-2.32.21-1.18-12.82,2.22-.2.2,2.15A4.89,4.89,0,0,1,677.21,303.45Z" fill="#5ac1b1"/><path d="M693.93,308.48a6.25,6.25,0,0,1-5.31,7.07l-.56.05a5.4,5.4,0,0,1-4.77-1.74l.2,2-2.23.22-1.67-17.93,2.32-.22.66,7.12a5.48,5.48,0,0,1,4.27-2.46,6.24,6.24,0,0,1,7,5.32A4.89,4.89,0,0,1,693.93,308.48Zm-2.35.23a4.24,4.24,0,1,0,0,.33C691.61,308.93,691.6,308.82,691.58,308.71Z" fill="#5ac1b1"/><path d="M695.77,297.85a1.52,1.52,0,0,1,1.37-1.66h.05a1.51,1.51,0,0,1,1.71,1.28v0a1.52,1.52,0,0,1-1.34,1.69h-.08a1.5,1.5,0,0,1-1.7-1.26S695.77,297.88,695.77,297.85Zm.77,3.93,2.32-.21,1.2,12.82-2.32.21Z" fill="#5ac1b1"/><path d="M714.88,294.91l1.67,17.93-2.22.2-.19-2a5.43,5.43,0,0,1-4.36,2.61,6.56,6.56,0,1,1-1.22-13.07,5.44,5.44,0,0,1,4.66,1.63l-.66-7.12Zm-1.22,11.73a4.25,4.25,0,1,0,0,.32C713.69,306.86,713.67,306.75,713.66,306.64Z" fill="#5ac1b1"/><path d="M731.35,293.38l1.72,17.92-2.22.21-.19-2a5.44,5.44,0,0,1-4.37,2.6A6.56,6.56,0,0,1,725.08,299a5.46,5.46,0,0,1,4.66,1.64l-.66-7Zm-1.21,11.74a4.36,4.36,0,1,0,0,.32Z" fill="#5ac1b1"/><path d="M748.41,304.19l-10.38,1a4.27,4.27,0,0,0,5,3.3,4.76,4.76,0,0,0,3.56-1.88L748,308a7,7,0,0,1-12.35-3.36,6.29,6.29,0,0,1,5.4-7.08l.42,0a6.2,6.2,0,0,1,6.9,5.4c0,.2,0,.4,0,.59A3.75,3.75,0,0,1,748.41,304.19Zm-10.54-.7,8.22-.77a4.16,4.16,0,0,0-8.22.77Z" fill="#5ac1b1"/><path d="M763.66,301l.69,7.36-2.33.23-.65-7.12c-.24-2.51-1.61-3.64-3.8-3.42a3.82,3.82,0,0,0-3.75,3.88,3.2,3.2,0,0,0,.09.75l.61,6.59-2.32.21L751,296.69l2.22-.22.19,1.94a5.5,5.5,0,0,1,4.43-2.48C760.94,295.66,763.31,297.26,763.66,301Z" fill="#5ac1b1"/><path d="M630.81,281l-9.53.89,1.14,12.23-9.7.91-1.14-12.23-29.48,2.75-.65-6.94,23.31-37.16,10.7-1-22,35.5,17.61-1.66-1-10.83,9.39-.89,1,10.86,9.54-.89Z" fill="#5ac1b1"/><path d="M633.67,265.87c-1.63-17.69,7.12-28.6,19.94-29.78s23.47,7.9,25.13,25.63-7.13,28.6-19.94,29.8S635.33,283.51,633.67,265.87Zm34.94-3.25c-1.21-13-6.85-18.52-14.24-17.85s-11.84,7.12-10.63,20.17,6.85,18.51,14.16,17.85S669.82,275.62,668.61,262.62Z" fill="#5ac1b1"/><path d="M723.93,268.33c.84,9.09-5.27,17.57-19.74,18.91-7.61.72-15.44-.88-20.81-4.34l3.59-8.18a25.2,25.2,0,0,0,16.26,3.85c7.12-.67,11.1-4.27,10.63-9.21s-4.28-7.68-12.44-6.93l-4.92.46-.64-6.84,10.88-15.66-24.47,2.28-.79-8.39,36.71-3.42.62,6.69-11.63,16.77C717.4,254.66,723.17,260.25,723.93,268.33Z" fill="#5ac1b1"/><path d="M540.12,497.19s-21.4-.69-42.49.32c-21.9,1.06-43.49,4-40.41,11.51a8,8,0,0,1,.44,5c-4.4,20.2-84.28,35.31-101.9,22.91-13.15-9.25-49.41,2.64-64.26,9.06-28.29-189.36-29.08-382.94-4-396.41s94.47,3.59,94.47,3.59,35.19,9.31,49.54,105.55S540.12,497.19,540.12,497.19Z" fill="#5ac1b1"/><path d="M540.12,497.19s-21.4-.69-42.49.32c-21.9,1.06-43.49,4-40.41,11.51a8,8,0,0,1,.44,5c-4.4,20.2-84.28,35.31-101.9,22.91-13.15-9.25-49.41,2.64-64.26,9.06-28.29-189.36-29.08-382.94-4-396.41s94.47,3.59,94.47,3.59,35.19,9.31,49.54,105.55S540.12,497.19,540.12,497.19Z" opacity="0.2"/><path d="M457.22,509a8,8,0,0,1,.44,5C436,448,385,259.33,403.53,310.76c17.75,49.59,73.46,150.05,94.1,186.75C475.73,498.57,454.14,501.47,457.22,509Z" opacity="0.2"/><path d="M284.85,199.63c-20.58,25.17-24.36,31.28-43.62,32.6a33.67,33.67,0,0,1,13,15.61h.06c5.67,12.4,6.49,26.88,16.37,35l-11.84,11.64-3,3s-.44-.37-1.19-1.07c-5.16-4.78-25.68-24.1-37.89-41.85-7.18-10.33-11.52-20.08-8.5-26.19,4.91-17.75,17.5-54.19,49.53-65.08,21-22.85,41.61-10.57,48.91-1.07C316.39,175,306.57,202.14,284.85,199.63Z" fill="#ee564b"/><path d="M270.63,282.84l-11.84,11.64-4.21,1.95c-4.85-4.53-23.35-21.9-35.69-38.77-.76-1-1.51-2.08-2.2-3.08,6.1-.07,25.74-.57,37.51-6.74h.06a31,31,0,0,1,1.32,3.21C260.12,262.63,261.56,275.41,270.63,282.84Z" fill="#303a46"/><path d="M255.58,251.05c-13,7.93-27.94,7.68-36.69,6.61-.76-1-1.51-2.08-2.2-3.08,6.1-.07,25.74-.57,37.51-6.74h.06A31,31,0,0,1,255.58,251.05Z" fill="#5ac1b1"/><path d="M261.76,272.09s13.48,1.25,17.56,4.8a5.4,5.4,0,0,1,1.33,6.67c7.25,4.08,0,19.91-12.67,23.81s-21-20-21-20S248.94,272.94,261.76,272.09Z" fill="#303a46"/><path d="M431.86,656.11H386.12a5.39,5.39,0,0,1-2.05-1.83c-2.36-34-5.75-50.4-5.75-50.4l31.86-1.29,7.21,25.3C428.06,635.19,440.78,650.83,431.86,656.11Z" fill="#303a46"/><path d="M382.65,656.73h54.23c1.37,0,.91-7.54-.47-7.54l-53.9.3C381.1,649.49,381.24,656.73,382.65,656.73Z" fill="#303a46"/><path d="M363.76,293.83c7.4,19.91,38.89,111.14,29.9,176.82,12.37,43.68,8.48,80.68,19.63,144.47l-32.46,1.71c-13.19-77.83-27.71-63-31.91-140.06-26.75-60.43-40.62-117.69-47.74-176.64C294.26,255.7,348.82,232.36,363.76,293.83Z" fill="#ee564b"/><path d="M381.17,620.15s-2.43-23.17-17.7-67.41c-4.74-13.6-7.31-22.6-8.65-28.14a58.13,58.13,0,0,1-1.5-7.74,229.91,229.91,0,0,0,27.34-40.22c9.93,15.54,21.76,31.09,21.76,31.09s.3,3.65.83,9.63c2.4,25,8.84,91.27,12.72,105.3C420.77,640,390.59,649.92,381.17,620.15Z" fill="#303a46"/><path d="M403.25,517.36a256.08,256.08,0,0,1-22.32-28.57c-3.54,12.84-18.41,28.38-26.11,35.81a58.13,58.13,0,0,1-1.5-7.74,229.91,229.91,0,0,0,27.34-40.22c9.93,15.54,21.76,31.09,21.76,31.09S402.72,511.38,403.25,517.36Z" fill="#5ac1b1"/><path d="M325.37,302.27q-.11,3.92-.24,7.79-.3,8.4-.75,16.59a1001.65,1001.65,0,0,1-16.77,136c6.55,59.17-8.33,70.2-15.06,154.86l-29.34-.39c-.07-34.36-2.07-76.91-4.15-145.81-16.26-63.38-11.32-112-5.2-152.16.83-5.45,1.68-10.75,2.51-15.91l.21-1.3C264.9,254.09,330,238.76,325.37,302.27Z" fill="#ee564b"/><path d="M292.55,617.52c2.62,14,4.49,25,3.4,37.64l-71.06,1.38s-7-6.85,1.81-17.12,25.63-4.33,36.51-22.29Z" fill="#303a46"/><path d="M221.66,656.73h75.5c1.37,0,1-7.54-.37-7.54l-75.17.3C220.2,649.49,220.25,656.73,221.66,656.73Z" fill="#303a46"/><path d="M306.66,521.83s-.51,2.52-1.37,6.8c-3.58,18.69-13.16,70.87-12,94.35-13.34,15.92-30.68-1.76-30.68-1.76l-7-129-.48-8.69A160.65,160.65,0,0,0,306.66,521.83Z" fill="#303a46"/><path d="M306.66,521.83s-.51,2.52-1.37,6.8c-25.92-7.55-41.87-25.3-49.7-36.38l-.48-8.69A160.65,160.65,0,0,0,306.66,521.83Z" fill="#5ac1b1"/><path d="M258.56,298.17c0,15,106.51,10.66,106.51-4.34a217.51,217.51,0,0,1,7.71-61.95c31.93-31.28,30-55.56,21.93-68.74-13.95-22.71-84.44-21.43-109.82-11.66-10.07,3.88-23.61,19.67-27.94,44.86-2.22,12.94,7.31,28,8.82,38.49C269.26,259.05,259.26,294.69,258.56,298.17Z" fill="#ee564b"/><path d="M325,161.78c5.26-4.17,26.22-10.61,31.8-15.18l-1.26-36.39-20.61-2a61.07,61.07,0,0,0-17.1,4l-4.64,24-1,5.19C309.78,146.44,314.41,152.6,325,161.78Z" fill="#f4a793"/><path d="M348.55,118.45c-3.23,5-16.77,17.72-35.41,17.68l4-20.73Z" fill="#e6836f"/><path d="M302.93,70.52c-1.62,7.17-4.95,22.91-4.4,30.15a23.67,23.67,0,0,0,1.29,6c4.67,13.38,18.8,20.83,32.72,18.19l1.45-.29A37.31,37.31,0,0,0,356.8,108.8a94.18,94.18,0,0,0,10.12-18.89c7.88-21.52-7.33-40.39-26.61-44.74S308,48.17,302.93,70.52Z" fill="#f4a793"/><path d="M360.46,104.12c4-7.08-1.32-10-7.18-4.45,1-5.34,7.09-21,1.7-26.18-6.09-6-32.91-3.4-47.31-18.42,0,0,10.74-23.54,46-9.64C393.44,66.53,360.46,104.12,360.46,104.12Z" fill="#303a46"/><ellipse cx="360.7" cy="101.66" rx="8.69" ry="6.75" transform="translate(51.99 314.12) rotate(-50.28)" fill="#f4a793"/><path d="M313.29,134c3.53,6.29,39.76,3,43-2.27l2,20.13L324.62,171,307,151.64Z" fill="#ee564b"/><path d="M372.84,67.22c-1-17.62-35.1-42.49-59.56-33.25C296.78,40.19,300.65,57.71,315,61,327.69,63.93,362.77,48.75,372.84,67.22Z" fill="#303a46"/><path d="M310.23,34a22.74,22.74,0,0,1,3.44-8.78c-19.14,12.54-9.61,27.53-9.39,28.17,7.59-23,25.71-22,32.14-21.91C319.87,23.71,310.4,33.33,310.23,34Z" fill="#303a46"/><g opacity="0.2"><path d="M372.84,67.22c-1-17.62-35.1-42.49-59.56-33.25C296.78,40.19,300.65,57.71,315,61,327.69,63.93,362.77,48.75,372.84,67.22Z"/><path d="M310.23,34a22.74,22.74,0,0,1,3.44-8.78c-19.14,12.54-9.61,27.53-9.39,28.17,7.59-23,25.71-22,32.14-21.91C319.87,23.71,310.4,33.33,310.23,34Z"/></g><path d="M373.29,319.68a267.82,267.82,0,0,1-48.91,7,227.48,227.48,0,0,1-70.52-7.48c.83-5.45,1.68-10.75,2.51-15.91l.21-1.3c16.5,6.21,44.23,8.72,68.55,8.1,18.58-.47,35.18-2.77,43.26-6.63Z" fill="#5ac1b1"/><path d="M443.15,265.15C424.77,284.85,386,307.32,386,307.32L374.1,290.2c12.34-6.8,19.14-24.42,30.91-36.5a41.64,41.64,0,0,1,14.16-9.89c-18.76-4.84-28.2-9.5-43.81-38-21.84-1.51-26.56-30.09-14.66-40.73,8.94-8,31.47-16.36,48,10,29.46,16.55,42,52.68,43.62,71.06C453.73,251.3,449.76,258,443.15,265.15Z" fill="#ee564b"/><path d="M384.77,281.24s-13.48-1.23-18.14,1.51a5.39,5.39,0,0,0-2.53,6.31c-7.88,2.69-3.64,19.57,8.1,25.73S396.47,299,396.47,299,397.22,284.42,384.77,281.24Z" fill="#303a46"/><path d="M443.15,265.15c-1.13,1.2-2.33,2.46-3.59,3.65C420.18,287.56,386,307.32,386,307.32L374.1,290.2c10.64-5.85,17.12-19.7,26.25-31.16A64.08,64.08,0,0,1,405,253.7,90.08,90.08,0,0,0,443.15,265.15Z" fill="#303a46"/><path d="M443.15,265.15c-1.13,1.2-2.33,2.46-3.59,3.65C423,268,407.34,262,400.35,259A64.08,64.08,0,0,1,405,253.7,90.08,90.08,0,0,0,443.15,265.15Z" fill="#5ac1b1"/><path d="M335.22,191.75h0v0Z" fill="#d9ffff"/><path d="M335.22,191.75h0v0Z" fill="#d9ffff"/><path d="M301.94,187l0-.09,0,.09Z" fill="#d9ffff"/><path d="M301.94,187l0-.09,0,.09Z" fill="#d9ffff"/><path d="M319.74,179.25a33.79,33.79,0,0,0,15.45,12.52c-.05.5-.38,3.23-1.86,15.83-2,16.82-17.3,22.9-19.67,23.83-2-1.43-15.54-11.78-13.56-28.59,1.48-12.61,1.8-15.34,1.86-15.84A31.47,31.47,0,0,0,319.74,179.25Z" fill="#fff"/><path d="M318,188.18l0,0a25.23,25.23,0,0,1-11.92,4.93l-1.26,10.75a19.71,19.71,0,0,0,3.7,14,26.81,26.81,0,0,0,5.2,5.52l.16.12a24.53,24.53,0,0,0,6.48-3.94,18.81,18.81,0,0,0,6.81-12.45l1.26-10.75A26.89,26.89,0,0,1,318,188.18Z" fill="#f7d46c"/><path d="M308.88,146.27c1.81,4.64,7.84,8.73,14.64,12.72a96.52,96.52,0,0,0,34.76-12.6c10.2,0,17.53,3.88,25.08,6.77l-60.2,9.8-35.37-13.35C292.5,147.9,299.23,146.74,308.88,146.27Z" fill="#5ac1b1"/><path d="M515.72,271.21h0v0Z" fill="#d9ffff"/><path d="M515.72,271.21h0v0Z" fill="#d9ffff"/><path d="M338.1,273.16v0Z" fill="#d9ffff"/><path d="M338.1,273.16v0Z" fill="#d9ffff"/><path d="M426.23,224c20.84,21.94,54,39.81,89.39,47.28,0,2.35.17,15.37.83,75.37.89,80.05-75.38,119.66-87.22,125.74-11.55-5.2-89.3-43.74-90.19-123.78-.66-60-.81-73-.84-75.37C373.43,265,405.87,246.41,426.23,224Z" fill="#fff"/><path d="M426.53,238.49c20.4,18.38,48.58,32.74,79.51,40.47l.75,67.81c.35,31-11.85,59.19-36.26,83.69A176.29,176.29,0,0,1,429,461.1l-1.18-.6-1.47-221.85Z" fill="#f7d46c"/><path d="M426.53,238.49c20.4,18.38,48.58,32.74,79.51,40.47l.75,67.81c.35,31-11.85,59.19-36.26,83.69A176.29,176.29,0,0,1,429,461.1l-1.18-.6-1.47-221.85Z" fill="#fff" opacity="0.2"/><path d="M426.36,238.65l1.47,221.85a176.32,176.32,0,0,1-41-29.12c-24.94-24-37.76-51.84-38.1-82.87L348,280.69C378.62,272.31,406.39,257.39,426.36,238.65Z" fill="#f7d46c"/><path d="M391.13,336.63l.34,52.54c0,5.85,71.8,5.38,71.76-.47l-.34-52.54Zm27.14,19.66a8.87,8.87,0,1,1,12.55,7.95l.1,14.93a3.63,3.63,0,0,1-7.26,0l-.1-14.89A8.8,8.8,0,0,1,418.27,356.29Z" fill="#fff"/><path d="M397.38,332.85l7.27-.05,0-3.54a22.34,22.34,0,0,1,44.67-.29l0,3.54,7.27-.05,0-3.54a29.6,29.6,0,0,0-59.19.39Z" fill="#fff"/></svg>